<?xml version="1.0" encoding="UTF-8" standalone="no"?>
<svg
   xmlns:dc="http://purl.org/dc/elements/1.1/"
   xmlns:cc="http://creativecommons.org/ns#"
   xmlns:rdf="http://www.w3.org/1999/02/22-rdf-syntax-ns#"
   xmlns:svg="http://www.w3.org/2000/svg"
   xmlns="http://www.w3.org/2000/svg"
   id="svg821"
   version="1.1"
   viewBox="0 0 200 200"
   height="200mm"
   width="200mm">
  <defs
     id="defs815" />
  <metadata
     id="metadata818">
    <rdf:RDF>
      <cc:Work
         rdf:about="">
        <dc:format>image/svg+xml</dc:format>
        <dc:type
           rdf:resource="http://purl.org/dc/dcmitype/StillImage" />
        <dc:title></dc:title>
      </cc:Work>
    </rdf:RDF>
  </metadata>
  <g
     transform="translate(0,-97)"
     id="layer1">
    <path
       d="m 32.419102,118.86248 c 1.448001,0.597 2.924228,1.12969 4.344008,1.79101 5.964656,2.77832 9.99222,5.08855 15.799668,8.56174 3.547636,2.1217 7.082647,4.26733 10.551075,6.51618 8.548873,5.54289 13.318191,9.14446 21.596633,15.11976 13.130932,10.13716 26.621284,20.07868 37.906394,32.33783 7.41685,8.05702 8.20196,9.85051 14.21945,18.63629 7.99209,11.79684 13.65252,24.88529 19.52142,37.80269 0.90878,1.69432 1.78877,3.48554 3.13829,4.89032 1.21354,1.26324 0.24274,-0.11968 1.64254,1.44942 0.47981,0.53785 0.89256,1.13195 1.33885,1.69793 1.64346,1.91707 2.94983,4.0317 4.03518,6.30011 0.40555,0.97165 -13.3356,6.70695 -13.74114,5.7353 v 0 c -0.69538,-1.21876 -1.39337,-2.43344 -2.16825,-3.60408 -0.62702,0.13747 -0.19433,0.0844 -1.35665,-0.78856 -3.08385,-2.31625 -5.77461,-5.08639 -8.25184,-8.03391 -0.91667,-1.19189 -1.8693,-2.35697 -2.74999,-3.57568 -7.19251,-9.95302 -12.99463,-20.8599 -20.82706,-30.36327 -4.25473,-5.27686 -8.34109,-10.59698 -13.10246,-15.44675 -11.11135,-11.31765 -24.501285,-19.90108 -37.122585,-29.36486 -5.193175,-3.83426 -15.8287,-11.61186 -20.897453,-15.65145 -3.14231,-2.5043 -6.185582,-5.13093 -9.236866,-7.74537 -4.426764,-3.79299 -9.158012,-7.85652 -13.12373,-12.18774 -1.206712,-1.31793 -2.227447,-2.79478 -3.34117,-4.19218 -0.698956,-0.8362 11.126728,-10.72093 11.825686,-9.88473 z"
       id="path1512"
       style="fill:#008000;stroke:#000000;stroke-width:0.36199999;stroke-miterlimit:4;stroke-dasharray:none;stroke-opacity:1" />
    <path
       d="m 170.09302,134.18322 c -0.43904,0.80419 -0.81817,1.64411 -1.31712,2.41256 -2.35147,3.62154 -4.51148,6.1191 -7.18929,9.61505 -5.3565,6.99303 -10.56908,14.09511 -15.90516,21.10406 -10.36024,13.13958 -21.07802,25.99019 -31.56474,39.02631 -11.20643,14.5416 -24.090184,27.68336 -37.130004,40.56738 -7.147251,6.11397 -14.371749,12.26211 -22.898404,16.37559 -0.486423,-0.0924 -0.286705,-0.002 -0.620205,-0.21909 -0.522713,0.82291 -12.160464,-6.56937 -11.63775,-7.39229 v 0 c 0.08626,-0.93751 -0.02588,-0.33039 0.657772,-1.73142 4.856822,-7.58073 11.728331,-13.51648 17.790509,-20.08563 11.175011,-11.12786 1.147086,-0.98568 12.255458,-12.691 5.505362,-5.80121 7.208549,-7.30342 12.618,-13.12978 2.000642,-2.15483 3.928528,-4.37619 5.912392,-6.54648 1.971797,-2.15708 3.969586,-4.29026 5.954379,-6.4354 3.893843,-4.51163 6.353413,-7.24351 9.989623,-11.90547 6.96941,-8.93543 13.32769,-18.32394 20.14416,-27.37241 3.96834,-4.95626 8.1571,-10.37757 12.49022,-15.03091 5.75891,-6.18451 12.24634,-11.6088 19.29148,-16.26247 0.686,-0.78904 11.84467,8.91236 11.15868,9.7014 z"
       id="path1514"
       style="fill:#008000;stroke:#000000;stroke-width:0.36199999;stroke-miterlimit:4;stroke-dasharray:none;stroke-opacity:1" />
  </g>
</svg>
