<?xml version="1.0" encoding="UTF-8" standalone="no"?>
<svg
   xmlns:dc="http://purl.org/dc/elements/1.1/"
   xmlns:cc="http://creativecommons.org/ns#"
   xmlns:rdf="http://www.w3.org/1999/02/22-rdf-syntax-ns#"
   xmlns:svg="http://www.w3.org/2000/svg"
   xmlns="http://www.w3.org/2000/svg"
   id="svg821"
   version="1.1"
   viewBox="0 0 200 200"
   height="200mm"
   width="200mm">
  <defs
     id="defs815" />
  <metadata
     id="metadata818">
    <rdf:RDF>
      <cc:Work
         rdf:about="">
        <dc:format>image/svg+xml</dc:format>
        <dc:type
           rdf:resource="http://purl.org/dc/dcmitype/StillImage" />
        <dc:title></dc:title>
      </cc:Work>
    </rdf:RDF>
  </metadata>
  <g
     transform="translate(0,-97)"
     id="layer1">
    <path
       d="m 130.67005,126.42448 c -0.69676,0.14184 -1.38692,0.32116 -2.09027,0.42551 -3.4745,0.51553 -7.02714,0.62701 -10.52845,0.80604 -5.89453,0.3014 -3.64176,0.19326 -9.82649,0.44362 -11.360975,0.27748 -22.722125,0.13476 -34.079751,0.59416 -1.580568,0.23216 -3.198355,0.28395 -4.741701,0.69647 -4.646785,1.24202 -9.164294,4.53583 -12.066109,8.3261 -2.952146,3.85602 -4.206301,7.53883 -6.126064,11.9629 -3.495424,10.26517 -6.35921,21.0664 -5.866231,32.0136 0.05178,1.14978 0.232693,2.2901 0.349041,3.43515 0.456269,2.10684 0.491424,3.46215 1.696876,5.22133 0.51938,0.75796 1.229712,1.36577 1.830015,2.0614 0.959075,1.11137 1.912556,2.22777 2.847821,3.35925 3.54149,4.28448 3.597913,4.45658 7.080221,9.02678 3.797477,4.774 4.206457,5.16308 7.806865,10.20951 2.68986,3.77018 3.502961,5.44856 6.493393,8.80105 2.829835,3.17245 3.242667,3.22742 6.530327,5.65204 1.259252,0.52213 2.488231,1.12427 3.777755,1.56639 1.61022,0.55206 3.271837,0.94096 4.907759,1.41144 1.884524,0.61319 3.779271,1.19581 5.653571,1.83957 2.105692,0.72324 4.177689,1.54245 6.285002,2.26097 4.39221,1.49759 8.82825,2.86346 13.2367,4.31255 5.97013,1.93777 12.09115,3.10084 18.36489,3.30652 0.30274,0.01 0.5848,-0.1668 0.88529,-0.20498 6.75024,-0.85776 2.85328,0.16161 8.71356,-1.85058 1.08095,-0.7896 2.26668,-1.45283 3.24285,-2.3688 4.01765,-3.76986 6.26772,-8.87158 8.38127,-13.83083 2.68782,-6.3067 2.56618,-6.36169 4.88394,-13.0932 2.81452,-8.53272 6.22798,-16.98109 7.45466,-25.94475 0.70888,-5.17999 0.55553,-8.14439 0.59662,-13.41085 -0.0289,-2.35124 0.0587,-4.70681 -0.0868,-7.05372 -0.14285,-2.30445 -0.44831,-4.59754 -0.77709,-6.88288 -0.79933,-5.55598 -2.09971,-11.84414 -5.04348,-16.74323 -0.61933,-1.0307 -1.53228,-1.85359 -2.29842,-2.78039 -0.85616,-0.59554 -1.64521,-1.3016 -2.56849,-1.78663 -1.99316,-1.04706 -3.19998,-1.0133 -5.40592,-1.17099 -3.29368,-0.23546 -6.59753,-0.23671 -9.89718,-0.31087 -2.97149,-0.51245 -6.01385,-0.82959 -8.91366,-1.70289 -2.12852,-0.64103 -4.12,-1.58561 -6.26796,-2.17431 -0.43375,-0.0734 -0.8637,-0.17465 -1.30126,-0.22022 -0.35161,-0.0366 -0.70675,-0.0303 -1.06024,-0.0258 -0.26753,0.003 -1.06855,0.0577 -0.80111,0.0498 5.86592,-0.174 3.27557,-0.1895 1.9593,-0.16169 -0.23438,0.0305 -0.46877,0.0609 -0.70316,0.0914 -0.9153,0.42314 -6.89945,-12.52125 -5.98415,-12.9444 v 0 c 0.2643,-0.0791 0.52861,-0.15824 0.79291,-0.23735 0.50501,-0.15594 2.09592,-0.66677 2.53751,-0.70946 3.99501,-0.3862 7.75215,-0.45637 11.60994,0.67 0.89493,0.25677 2.7844,0.8242 3.75737,1.01412 2.80948,0.54839 5.7169,0.43711 8.55104,0.22994 8.55719,-0.1256 16.45735,0.41245 23.87968,5.32345 1.80098,1.19162 3.35088,2.72498 5.02632,4.08746 4.22792,5.10842 5.44105,5.8406 8.10645,12.10881 4.28176,10.06941 4.92871,21.16744 4.90173,31.95283 -0.16754,2.68791 -0.25685,5.38183 -0.50263,8.06372 -1.14549,12.49979 -4.16201,24.71954 -8.30286,36.54947 -0.4838,1.23782 -5.26617,13.53475 -5.83017,14.73275 -3.23546,6.87244 -7.7856,14.17354 -13.40014,19.37032 -1.9008,1.75936 -4.10999,3.15304 -6.16498,4.72957 -5.4214,2.5919 -8.01628,4.44506 -14.1503,4.95371 -11.61132,0.96285 -23.17858,-1.06775 -34.17621,-4.6278 -6.453254,-2.34826 -12.81674,-4.87003 -19.209488,-7.37482 -5.071857,-1.98724 -7.181702,-2.55368 -12.035483,-5.19308 -1.894481,-1.03019 -3.669655,-2.26605 -5.504482,-3.39907 -1.553268,-1.2367 -3.174394,-2.39267 -4.659799,-3.7101 -7.805378,-6.92273 -13.715743,-15.665 -19.559963,-24.2101 -3.897577,-6.09447 -2.302007,-3.55411 -5.935438,-9.40384 -3.213594,-5.1738 -6.559378,-10.32439 -8.242091,-16.2485 -1.424707,-4.62204 -2.132152,-6.22088 -2.686242,-11.28329 -1.312467,-11.99125 1.170881,-23.84179 5.73061,-34.91455 1.491578,-2.97892 2.711709,-6.11001 4.474736,-8.93676 5.965087,-9.56412 15.042695,-17.33672 25.833554,-20.80216 2.148456,-0.68997 4.409675,-0.96045 6.614512,-1.44067 2.026531,-0.14553 4.050276,-0.33722 6.079596,-0.43659 5.718214,-0.27999 6.30134,-0.11772 11.967918,-0.0805 5.671656,0.0373 11.346556,-0.0785 17.01504,0.18916 7.77088,0.30816 15.62368,0.39213 23.30543,1.67516 1.00032,-0.25683 4.63254,13.88974 3.63223,14.14658 z"
       id="path1498"
       style="fill:#d40000;stroke:#000000;stroke-width:0.36199999;stroke-miterlimit:4;stroke-dasharray:none;stroke-opacity:1" />
  </g>
</svg>
